<?xml version="1.0" standalone="no"?><!DOCTYPE svg PUBLIC "-//W3C//DTD SVG 1.1//EN" "http://www.w3.org/Graphics/SVG/1.1/DTD/svg11.dtd"><svg t="1661767023066" class="icon" viewBox="0 0 1024 1024" version="1.1" xmlns="http://www.w3.org/2000/svg" p-id="20283" xmlns:xlink="http://www.w3.org/1999/xlink" width="200" height="200"><path d="M848.592153 24.523c84.889185 49.025504 115.291623 155.268374 67.979899 237.369812L817.561328 433.38496l82.741249 47.791583c58.771193 33.875698 79.804974 107.476791 47.003244 164.317127L762.480472 965.559029c-32.813155 56.840336-107.054059 75.406274-165.825252 41.484876l-472.923018-273.062115c-58.771193-33.932823-79.8621-107.533917-47.048945-164.317127L261.497181 249.587879c32.790304-56.851761 107.054059-75.474826 165.813827-41.484876L510.109382 255.928861l99.022149-171.514999C656.466106 2.289574 763.702968-24.513929 848.592153 24.523z m-584.969886 385.143259L147.656557 610.589705a40.296656 40.296656 0 0 0 15.68679 54.76095l67.111584 38.754255 65.569183-109.681853a40.136703 40.136703 0 0 1 54.052589-14.45287l1.393873 0.754063a39.439767 39.439767 0 0 1 15.206932 53.698408c-0.194228 0.342756-0.388457 0.685512-0.59411 1.016842l-65.294978 109.350523 187.544544 108.333681 67.808521-113.475018a40.136703 40.136703 0 0 1 54.064014-14.441444l1.382448 0.742638a39.439767 39.439767 0 0 1 15.206932 53.698407c-0.182803 0.342756-0.388457 0.685512-0.59411 1.028268l-67.545741 113.04086 77.611336 44.798182a40.296656 40.296656 0 0 0 55.28651-13.813058l120.478661-208.738278z m416.368311-284.31593L541.482962 365.405061l-153.771673-88.739475a40.308081 40.308081 0 0 0-55.240809 13.813059L303.519041 340.47529l548.409268 306.195175 24.404213-42.181813a40.296656 40.296656 0 0 0-15.675365-54.749525l-153.680273-88.739475 138.621868-240.054732c25.478181-44.204072 9.140154-101.421439-36.560618-127.813635S705.594436 81.123407 679.990578 125.350329z" p-id="20284"></path></svg>