<?xml version="1.0" standalone="no"?><!DOCTYPE svg PUBLIC "-//W3C//DTD SVG 1.1//EN" "http://www.w3.org/Graphics/SVG/1.1/DTD/svg11.dtd"><svg t="1661840752692" class="icon" viewBox="0 0 1024 1024" version="1.1" xmlns="http://www.w3.org/2000/svg" p-id="3212" xmlns:xlink="http://www.w3.org/1999/xlink" width="200" height="200"><path d="M885.016511 817.32099m33.93048 33.93048l90.48128 90.48128q33.93048 33.93048 0 67.860959l0 0q-33.93048 33.93048-67.86096 0l-90.481279-90.481279q-33.93048-33.93048 0-67.86096l0 0q33.93048-33.93048 67.860959 0Z" p-id="3213"></path><path d="M777.995904 976.333675a191.939779 191.939779 0 1 1 191.939779-191.939779 191.939779 191.939779 0 0 1-191.939779 191.939779z m0-287.909668a95.969889 95.969889 0 1 0 95.969889 95.969889 95.969889 95.969889 0 0 0-95.969889-95.969889z" p-id="3214"></path><path d="M255.919705 479.849447m47.984945 0l161.869213 0q47.984945 0 47.984945 47.984945l0 0q0 47.984945-47.984945 47.984945l-161.869213 0q-47.984945 0-47.984945-47.984945l0 0q0-47.984945 47.984945-47.984945Z" p-id="3215"></path><path d="M255.919705 255.919705m47.984945 0l415.869521 0q47.984945 0 47.984945 47.984945l0 0q0 47.984945-47.984945 47.984945l-415.869521 0q-47.984945 0-47.984945-47.984945l0 0q0-47.984945 47.984945-47.984945Z" p-id="3216"></path><path d="M1023.678821 127.959853v273.194285a46.705346 46.705346 0 0 1-93.410693 0V157.390619a63.979926 63.979926 0 0 0-63.979926-63.979927H157.390619a63.979926 63.979926 0 0 0-63.979927 63.979927v709.537382a63.979926 63.979926 0 0 0 63.979927 63.979927h243.763519a46.705346 46.705346 0 1 1 0 92.770893H127.959853a127.959853 127.959853 0 0 1-127.959853-127.959853V127.959853a127.959853 127.959853 0 0 1 127.959853-127.959853h767.759115a127.959853 127.959853 0 0 1 127.959853 127.959853z" p-id="3217"></path></svg>