<?xml version="1.0" standalone="no"?><!DOCTYPE svg PUBLIC "-//W3C//DTD SVG 1.1//EN" "http://www.w3.org/Graphics/SVG/1.1/DTD/svg11.dtd"><svg t="1659789242247" class="icon" viewBox="0 0 1024 1024" version="1.1" xmlns="http://www.w3.org/2000/svg" p-id="20342" xmlns:xlink="http://www.w3.org/1999/xlink" width="200" height="200"><defs><style type="text/css">@font-face { font-family: feedback-iconfont; src: url("//at.alicdn.com/t/font_1031158_u69w8yhxdu.woff2?t=1630033759944") format("woff2"), url("//at.alicdn.com/t/font_1031158_u69w8yhxdu.woff?t=1630033759944") format("woff"), url("//at.alicdn.com/t/font_1031158_u69w8yhxdu.ttf?t=1630033759944") format("truetype"); }
</style></defs><path d="M1011.62752 524.373333l-426.666667-426.666666A42.666667 42.666667 0 0 0 554.66752 85.333333H42.66752a42.666667 42.666667 0 0 0-42.666667 42.666667v341.333333a42.666667 42.666667 0 0 0 12.373334 30.293334l426.666666 426.666666a42.666667 42.666667 0 0 0 60.586667 0l55.04-55.466666 55.04 55.466666a42.666667 42.666667 0 0 0 60.586667 0l341.333333-341.333333a42.666667 42.666667 0 0 0 0-60.586667zM469.334187 835.84l-384-384V170.666667h281.173333l384 384z m170.666666 0l-25.173333-25.173333 226.133333-225.706667a42.666667 42.666667 0 0 0 0-60.586667L486.82752 170.666667h50.346667l384 384z" p-id="20343"></path><path d="M213.334187 298.666667m-42.666667 0a42.666667 42.666667 0 1 0 85.333333 0 42.666667 42.666667 0 1 0-85.333333 0Z" p-id="20344"></path></svg>