<?xml version="1.0" standalone="no"?><!DOCTYPE svg PUBLIC "-//W3C//DTD SVG 1.1//EN" "http://www.w3.org/Graphics/SVG/1.1/DTD/svg11.dtd"><svg t="1659810674747" class="icon" viewBox="0 0 1024 1024" version="1.1" xmlns="http://www.w3.org/2000/svg" p-id="20279" xmlns:xlink="http://www.w3.org/1999/xlink" width="200" height="200"><defs><style type="text/css">@font-face { font-family: feedback-iconfont; src: url("//at.alicdn.com/t/font_1031158_u69w8yhxdu.woff2?t=1630033759944") format("woff2"), url("//at.alicdn.com/t/font_1031158_u69w8yhxdu.woff?t=1630033759944") format("woff"), url("//at.alicdn.com/t/font_1031158_u69w8yhxdu.ttf?t=1630033759944") format("truetype"); }
</style></defs><path d="M714.666667 917.333333h-405.333334C198.4 917.333333 106.666667 825.6 106.666667 714.666667v-405.333334C106.666667 198.4 198.4 106.666667 309.333333 106.666667h405.333334c110.933333 0 202.666667 91.733333 202.666666 202.666666v405.333334c0 110.933333-91.733333 202.666667-202.666666 202.666666z m-405.333334-746.666666C232.533333 170.666667 170.666667 232.533333 170.666667 309.333333v405.333334c0 76.8 61.866667 138.666667 138.666666 138.666666h405.333334c76.8 0 138.666667-61.866667 138.666666-138.666666v-405.333334c0-76.8-61.866667-138.666667-138.666666-138.666666h-405.333334z" p-id="20280"></path><path d="M744.533333 420.266667h-128c-17.066667 0-32-14.933333-32-32s14.933333-32 32-32h128c17.066667 0 32 14.933333 32 32s-14.933333 32-32 32zM744.533333 548.266667h-128c-17.066667 0-32-14.933333-32-32s14.933333-32 32-32h128c17.066667 0 32 14.933333 32 32s-14.933333 32-32 32zM744.533333 676.266667h-128c-17.066667 0-32-14.933333-32-32s14.933333-32 32-32h128c17.066667 0 32 14.933333 32 32s-14.933333 32-32 32z"  p-id="20281"></path><path d="M407.466667 465.066667c-10.666667 0-19.2-4.266667-25.6-12.8l-72.533334-91.733334c-10.666667-12.8-8.533333-34.133333 4.266667-44.8 12.8-10.666667 34.133333-8.533333 44.8 4.266667l46.933333 59.733333 46.933334-59.733333c10.666667-12.8 32-17.066667 44.8-4.266667 12.8 10.666667 17.066667 32 4.266666 44.8l-72.533333 91.733334c-2.133333 8.533333-10.666667 12.8-21.333333 12.8z"  p-id="20282"></path><path d="M516.266667 467.2H298.666667c-17.066667 0-32-14.933333-32-32s14.933333-32 32-32h217.6c17.066667 0 32 14.933333 32 32s-12.8 32-32 32zM516.266667 576H298.666667c-17.066667 0-32-14.933333-32-32S281.6 512 298.666667 512h217.6c17.066667 0 32 14.933333 32 32s-12.8 32-32 32z"  p-id="20283"></path><path d="M407.466667 686.933333c-17.066667 0-32-14.933333-32-32V448c0-17.066667 14.933333-32 32-32s32 14.933333 32 32v206.933333c0 17.066667-14.933333 32-32 32z"  p-id="20284"></path></svg>